<?xml version="1.0" standalone="no"?>
<!DOCTYPE svg PUBLIC "-//W3C//DTD SVG 20010904//EN"
 "http://www.w3.org/TR/2001/REC-SVG-20010904/DTD/svg10.dtd">
<svg version="1.0" xmlns="http://www.w3.org/2000/svg"
 width="599.000000pt" height="599.000000pt" viewBox="0 0 599.000000 599.000000"
 preserveAspectRatio="xMidYMid meet">
<metadata>
Created by potrace 1.14, written by Peter Selinger 2001-2017
</metadata>
<g transform="translate(0.000000,599.000000) scale(0.100000,-0.100000)"
fill="#000000" stroke="none">
<path d="M2657 5974 c-1 -1 -18 -4 -37 -7 -183 -28 -363 -155 -450 -318 -24
-45 -42 -65 -78 -86 -613 -352 -1103 -906 -1384 -1568 -74 -172 -176 -520
-194 -660 -3 -27 -7 -52 -9 -55 -2 -3 -6 -32 -9 -65 -4 -33 -11 -94 -15 -135
-9 -80 -6 -498 4 -565 3 -22 10 -67 15 -100 5 -33 12 -80 15 -105 4 -24 8 -47
10 -51 2 -3 7 -21 10 -40 19 -115 94 -353 160 -509 305 -724 933 -1319 1645
-1559 101 -34 299 -86 365 -96 22 -3 69 -10 105 -16 95 -15 200 -22 330 -23
119 0 306 10 331 18 8 3 34 7 59 10 126 15 375 81 495 131 256 107 421 201
605 344 451 352 753 841 846 1366 24 137 29 195 29 360 0 186 -8 276 -39 426
-120 574 -510 1086 -1023 1342 -212 106 -403 162 -628 183 -69 6 -262 6 -320
0 -445 -49 -816 -246 -1099 -580 -178 -210 -284 -445 -334 -741 -14 -82 -7
-357 11 -445 56 -272 172 -494 355 -679 113 -113 142 -138 257 -207 107 -66
212 -109 340 -142 83 -21 124 -25 245 -26 168 -1 214 4 336 39 384 110 677
430 748 815 14 75 15 247 2 325 -38 227 -189 391 -401 438 -325 72 -626 -182
-614 -517 3 -71 1 -80 -16 -86 -94 -34 -227 85 -252 226 -43 238 158 493 440
557 84 19 240 16 322 -7 72 -20 187 -73 252 -117 42 -28 174 -156 210 -202
127 -162 204 -405 197 -613 -4 -92 -16 -190 -30 -236 -3 -9 -6 -25 -8 -35 -7
-31 -52 -146 -81 -203 -121 -242 -366 -477 -621 -597 -43 -20 -81 -38 -84 -38
-3 -1 -12 -4 -20 -8 -296 -115 -648 -117 -985 -6 -145 48 -367 172 -490 273
-191 156 -363 365 -477 577 -91 169 -174 422 -193 588 -3 25 -8 66 -12 91 -7
52 -7 313 1 381 45 411 208 792 484 1135 158 196 410 410 617 525 42 22 62 27
120 27 258 -2 494 151 594 384 53 125 62 312 21 438 -72 217 -255 386 -466
430 -50 11 -199 21 -207 14z"/>
</g>
</svg>
